<mxfile host="app.diagrams.net" modified="2023-10-18T05:40:55.597Z" agent="Mozilla/5.0 (Windows NT 10.0; Win64; x64) AppleWebKit/537.36 (KHTML, like Gecko) Chrome/115.0.0.0 Safari/537.36" etag="Nn9hSUy4QkfGIi35vTHa" version="22.0.4" type="github">
  <diagram id="C5RBs43oDa-KdzZeNtuy" name="Page-1">
    <mxGraphModel dx="2206" dy="1745" grid="1" gridSize="10" guides="1" tooltips="1" connect="1" arrows="1" fold="1" page="1" pageScale="1" pageWidth="827" pageHeight="1169" math="0" shadow="0">
      <root>
        <mxCell id="WIyWlLk6GJQsqaUBKTNV-0" />
        <mxCell id="WIyWlLk6GJQsqaUBKTNV-1" parent="WIyWlLk6GJQsqaUBKTNV-0" />
        <mxCell id="LmKcbsiHDKgh1KPG_1Xj-104" value="" style="edgeStyle=orthogonalEdgeStyle;rounded=0;orthogonalLoop=1;jettySize=auto;html=1;" parent="WIyWlLk6GJQsqaUBKTNV-1" target="LmKcbsiHDKgh1KPG_1Xj-103" edge="1">
          <mxGeometry relative="1" as="geometry">
            <mxPoint x="46" y="-89.99999999999977" as="sourcePoint" />
          </mxGeometry>
        </mxCell>
        <mxCell id="LmKcbsiHDKgh1KPG_1Xj-2" value="start" style="ellipse;whiteSpace=wrap;html=1;" parent="WIyWlLk6GJQsqaUBKTNV-1" vertex="1">
          <mxGeometry x="-10" y="-120" width="80" height="60" as="geometry" />
        </mxCell>
        <mxCell id="LmKcbsiHDKgh1KPG_1Xj-136" style="edgeStyle=orthogonalEdgeStyle;rounded=0;orthogonalLoop=1;jettySize=auto;html=1;exitX=1;exitY=0.5;exitDx=0;exitDy=0;entryX=0;entryY=0.5;entryDx=0;entryDy=0;" parent="WIyWlLk6GJQsqaUBKTNV-1" source="LmKcbsiHDKgh1KPG_1Xj-3" target="LmKcbsiHDKgh1KPG_1Xj-20" edge="1">
          <mxGeometry relative="1" as="geometry" />
        </mxCell>
        <mxCell id="LmKcbsiHDKgh1KPG_1Xj-3" value="Ask &quot;What is the website name?&quot;" style="whiteSpace=wrap;html=1;" parent="WIyWlLk6GJQsqaUBKTNV-1" vertex="1">
          <mxGeometry x="370" y="-120" width="110" height="60" as="geometry" />
        </mxCell>
        <mxCell id="LmKcbsiHDKgh1KPG_1Xj-25" value="" style="edgeStyle=orthogonalEdgeStyle;rounded=0;orthogonalLoop=1;jettySize=auto;html=1;" parent="WIyWlLk6GJQsqaUBKTNV-1" source="LmKcbsiHDKgh1KPG_1Xj-12" target="LmKcbsiHDKgh1KPG_1Xj-24" edge="1">
          <mxGeometry relative="1" as="geometry" />
        </mxCell>
        <mxCell id="LmKcbsiHDKgh1KPG_1Xj-12" value="set first and last characters of (website_name1) as (website_name2)" style="whiteSpace=wrap;html=1;" parent="WIyWlLk6GJQsqaUBKTNV-1" vertex="1">
          <mxGeometry x="650" y="-120" width="140" height="60" as="geometry" />
        </mxCell>
        <mxCell id="LmKcbsiHDKgh1KPG_1Xj-33" style="edgeStyle=orthogonalEdgeStyle;rounded=0;orthogonalLoop=1;jettySize=auto;html=1;entryX=0.5;entryY=1;entryDx=0;entryDy=0;" parent="WIyWlLk6GJQsqaUBKTNV-1" source="LmKcbsiHDKgh1KPG_1Xj-14" target="LmKcbsiHDKgh1KPG_1Xj-17" edge="1">
          <mxGeometry relative="1" as="geometry" />
        </mxCell>
        <mxCell id="LmKcbsiHDKgh1KPG_1Xj-14" value="Capitalize (website_name2)" style="whiteSpace=wrap;html=1;" parent="WIyWlLk6GJQsqaUBKTNV-1" vertex="1">
          <mxGeometry x="658" y="120" width="124" height="60" as="geometry" />
        </mxCell>
        <mxCell id="LmKcbsiHDKgh1KPG_1Xj-35" value="" style="edgeStyle=orthogonalEdgeStyle;rounded=0;orthogonalLoop=1;jettySize=auto;html=1;" parent="WIyWlLk6GJQsqaUBKTNV-1" source="LmKcbsiHDKgh1KPG_1Xj-17" target="LmKcbsiHDKgh1KPG_1Xj-34" edge="1">
          <mxGeometry relative="1" as="geometry" />
        </mxCell>
        <mxCell id="LmKcbsiHDKgh1KPG_1Xj-17" value="Set (website#) to the number of characters in&amp;nbsp; (website_name2)" style="whiteSpace=wrap;html=1;" parent="WIyWlLk6GJQsqaUBKTNV-1" vertex="1">
          <mxGeometry x="850" y="10" width="120" height="60" as="geometry" />
        </mxCell>
        <mxCell id="LmKcbsiHDKgh1KPG_1Xj-22" value="" style="edgeStyle=orthogonalEdgeStyle;rounded=0;orthogonalLoop=1;jettySize=auto;html=1;" parent="WIyWlLk6GJQsqaUBKTNV-1" source="LmKcbsiHDKgh1KPG_1Xj-20" target="LmKcbsiHDKgh1KPG_1Xj-12" edge="1">
          <mxGeometry relative="1" as="geometry" />
        </mxCell>
        <mxCell id="LmKcbsiHDKgh1KPG_1Xj-20" value="Set answer to (website_name1)" style="whiteSpace=wrap;html=1;" parent="WIyWlLk6GJQsqaUBKTNV-1" vertex="1">
          <mxGeometry x="520" y="-120" width="100" height="60" as="geometry" />
        </mxCell>
        <mxCell id="LmKcbsiHDKgh1KPG_1Xj-28" value="" style="edgeStyle=orthogonalEdgeStyle;rounded=0;orthogonalLoop=1;jettySize=auto;html=1;" parent="WIyWlLk6GJQsqaUBKTNV-1" source="LmKcbsiHDKgh1KPG_1Xj-24" target="LmKcbsiHDKgh1KPG_1Xj-17" edge="1">
          <mxGeometry relative="1" as="geometry" />
        </mxCell>
        <mxCell id="LmKcbsiHDKgh1KPG_1Xj-29" value="Y" style="edgeLabel;html=1;align=center;verticalAlign=middle;resizable=0;points=[];" parent="LmKcbsiHDKgh1KPG_1Xj-28" vertex="1" connectable="0">
          <mxGeometry x="-0.3704" y="1" relative="1" as="geometry">
            <mxPoint as="offset" />
          </mxGeometry>
        </mxCell>
        <mxCell id="LmKcbsiHDKgh1KPG_1Xj-51" style="edgeStyle=orthogonalEdgeStyle;rounded=0;orthogonalLoop=1;jettySize=auto;html=1;exitX=0.5;exitY=1;exitDx=0;exitDy=0;entryX=0.5;entryY=0;entryDx=0;entryDy=0;" parent="WIyWlLk6GJQsqaUBKTNV-1" source="LmKcbsiHDKgh1KPG_1Xj-24" target="LmKcbsiHDKgh1KPG_1Xj-14" edge="1">
          <mxGeometry relative="1" as="geometry" />
        </mxCell>
        <mxCell id="LmKcbsiHDKgh1KPG_1Xj-52" value="N" style="edgeLabel;html=1;align=center;verticalAlign=middle;resizable=0;points=[];" parent="LmKcbsiHDKgh1KPG_1Xj-51" vertex="1" connectable="0">
          <mxGeometry x="-0.2068" y="-1" relative="1" as="geometry">
            <mxPoint as="offset" />
          </mxGeometry>
        </mxCell>
        <mxCell id="LmKcbsiHDKgh1KPG_1Xj-24" value="Are all characters capitalized in (website_name2)?&amp;nbsp;" style="rhombus;whiteSpace=wrap;html=1;" parent="WIyWlLk6GJQsqaUBKTNV-1" vertex="1">
          <mxGeometry x="630" y="-10" width="180" height="100" as="geometry" />
        </mxCell>
        <mxCell id="LmKcbsiHDKgh1KPG_1Xj-38" value="" style="edgeStyle=orthogonalEdgeStyle;rounded=0;orthogonalLoop=1;jettySize=auto;html=1;" parent="WIyWlLk6GJQsqaUBKTNV-1" source="LmKcbsiHDKgh1KPG_1Xj-34" target="LmKcbsiHDKgh1KPG_1Xj-37" edge="1">
          <mxGeometry relative="1" as="geometry" />
        </mxCell>
        <mxCell id="LmKcbsiHDKgh1KPG_1Xj-34" value="Ask user &quot;Give two words describing how you will use the website (don&#39;t include spaces)&quot;" style="whiteSpace=wrap;html=1;" parent="WIyWlLk6GJQsqaUBKTNV-1" vertex="1">
          <mxGeometry x="1010" y="10" width="140" height="60" as="geometry" />
        </mxCell>
        <mxCell id="LmKcbsiHDKgh1KPG_1Xj-41" value="" style="edgeStyle=orthogonalEdgeStyle;rounded=0;orthogonalLoop=1;jettySize=auto;html=1;" parent="WIyWlLk6GJQsqaUBKTNV-1" source="LmKcbsiHDKgh1KPG_1Xj-37" target="LmKcbsiHDKgh1KPG_1Xj-40" edge="1">
          <mxGeometry relative="1" as="geometry" />
        </mxCell>
        <mxCell id="LmKcbsiHDKgh1KPG_1Xj-37" value="Set answer to (website_use)" style="whiteSpace=wrap;html=1;" parent="WIyWlLk6GJQsqaUBKTNV-1" vertex="1">
          <mxGeometry x="1190" y="10" width="100" height="60" as="geometry" />
        </mxCell>
        <mxCell id="LmKcbsiHDKgh1KPG_1Xj-47" value="" style="edgeStyle=orthogonalEdgeStyle;rounded=0;orthogonalLoop=1;jettySize=auto;html=1;" parent="WIyWlLk6GJQsqaUBKTNV-1" source="LmKcbsiHDKgh1KPG_1Xj-40" target="LmKcbsiHDKgh1KPG_1Xj-46" edge="1">
          <mxGeometry relative="1" as="geometry" />
        </mxCell>
        <mxCell id="LmKcbsiHDKgh1KPG_1Xj-53" value="Y" style="edgeLabel;html=1;align=center;verticalAlign=middle;resizable=0;points=[];" parent="LmKcbsiHDKgh1KPG_1Xj-47" vertex="1" connectable="0">
          <mxGeometry x="-0.1037" y="3" relative="1" as="geometry">
            <mxPoint as="offset" />
          </mxGeometry>
        </mxCell>
        <mxCell id="LmKcbsiHDKgh1KPG_1Xj-57" value="" style="edgeStyle=orthogonalEdgeStyle;rounded=0;orthogonalLoop=1;jettySize=auto;html=1;" parent="WIyWlLk6GJQsqaUBKTNV-1" source="LmKcbsiHDKgh1KPG_1Xj-40" target="LmKcbsiHDKgh1KPG_1Xj-42" edge="1">
          <mxGeometry relative="1" as="geometry" />
        </mxCell>
        <mxCell id="LmKcbsiHDKgh1KPG_1Xj-59" value="N" style="edgeLabel;html=1;align=center;verticalAlign=middle;resizable=0;points=[];" parent="LmKcbsiHDKgh1KPG_1Xj-57" vertex="1" connectable="0">
          <mxGeometry x="-0.2485" y="-1" relative="1" as="geometry">
            <mxPoint as="offset" />
          </mxGeometry>
        </mxCell>
        <mxCell id="LmKcbsiHDKgh1KPG_1Xj-40" value="Does (website_use) include vowels?&lt;br&gt;ex: &quot;a&quot;, &quot;e&quot;, &quot;i&quot;, &quot;o&quot;, &quot;u&quot;" style="rhombus;whiteSpace=wrap;html=1;" parent="WIyWlLk6GJQsqaUBKTNV-1" vertex="1">
          <mxGeometry x="1120" y="150" width="240" height="110" as="geometry" />
        </mxCell>
        <mxCell id="LmKcbsiHDKgh1KPG_1Xj-63" value="" style="edgeStyle=orthogonalEdgeStyle;rounded=0;orthogonalLoop=1;jettySize=auto;html=1;" parent="WIyWlLk6GJQsqaUBKTNV-1" source="LmKcbsiHDKgh1KPG_1Xj-42" target="LmKcbsiHDKgh1KPG_1Xj-62" edge="1">
          <mxGeometry relative="1" as="geometry" />
        </mxCell>
        <mxCell id="LmKcbsiHDKgh1KPG_1Xj-42" value="Ask &quot;What year was this website created?&quot;" style="whiteSpace=wrap;html=1;" parent="WIyWlLk6GJQsqaUBKTNV-1" vertex="1">
          <mxGeometry x="970" y="210" width="120" height="50" as="geometry" />
        </mxCell>
        <mxCell id="LmKcbsiHDKgh1KPG_1Xj-61" style="edgeStyle=orthogonalEdgeStyle;rounded=0;orthogonalLoop=1;jettySize=auto;html=1;entryX=0.5;entryY=1;entryDx=0;entryDy=0;" parent="WIyWlLk6GJQsqaUBKTNV-1" source="LmKcbsiHDKgh1KPG_1Xj-46" target="LmKcbsiHDKgh1KPG_1Xj-42" edge="1">
          <mxGeometry relative="1" as="geometry">
            <mxPoint x="1009.9999999999998" y="375" as="targetPoint" />
          </mxGeometry>
        </mxCell>
        <mxCell id="LmKcbsiHDKgh1KPG_1Xj-46" value="Change vowels to their corresponding number.&lt;br&gt;&quot;a&quot; --&amp;gt; &quot;1&quot;&lt;br&gt;&quot;e&quot; --&amp;gt; &quot;2&quot;&lt;br&gt;&quot;i&quot; --&amp;gt; &quot;3&quot;&lt;br&gt;&quot;o&quot; --&amp;gt; &quot;4&quot;&lt;br&gt;&quot;u&quot; --&amp;gt; &quot;5&quot;" style="whiteSpace=wrap;html=1;" parent="WIyWlLk6GJQsqaUBKTNV-1" vertex="1">
          <mxGeometry x="1186" y="300" width="109" height="120" as="geometry" />
        </mxCell>
        <mxCell id="LmKcbsiHDKgh1KPG_1Xj-65" value="" style="edgeStyle=orthogonalEdgeStyle;rounded=0;orthogonalLoop=1;jettySize=auto;html=1;" parent="WIyWlLk6GJQsqaUBKTNV-1" source="LmKcbsiHDKgh1KPG_1Xj-62" target="LmKcbsiHDKgh1KPG_1Xj-64" edge="1">
          <mxGeometry relative="1" as="geometry" />
        </mxCell>
        <mxCell id="LmKcbsiHDKgh1KPG_1Xj-62" value="Set (website_date) to the last two characters of answer" style="whiteSpace=wrap;html=1;" parent="WIyWlLk6GJQsqaUBKTNV-1" vertex="1">
          <mxGeometry x="827" y="203.75" width="120" height="60" as="geometry" />
        </mxCell>
        <mxCell id="LmKcbsiHDKgh1KPG_1Xj-73" value="" style="edgeStyle=orthogonalEdgeStyle;rounded=0;orthogonalLoop=1;jettySize=auto;html=1;" parent="WIyWlLk6GJQsqaUBKTNV-1" source="LmKcbsiHDKgh1KPG_1Xj-64" target="LmKcbsiHDKgh1KPG_1Xj-72" edge="1">
          <mxGeometry relative="1" as="geometry" />
        </mxCell>
        <mxCell id="LmKcbsiHDKgh1KPG_1Xj-64" value="Set (password) to (website_name2) + (website#) + (website_use) + &quot;#&quot; + (website_date)" style="whiteSpace=wrap;html=1;" parent="WIyWlLk6GJQsqaUBKTNV-1" vertex="1">
          <mxGeometry x="576" y="206.25" width="214" height="57.5" as="geometry" />
        </mxCell>
        <mxCell id="LmKcbsiHDKgh1KPG_1Xj-114" value="" style="edgeStyle=orthogonalEdgeStyle;rounded=0;orthogonalLoop=1;jettySize=auto;html=1;" parent="WIyWlLk6GJQsqaUBKTNV-1" source="LmKcbsiHDKgh1KPG_1Xj-72" target="LmKcbsiHDKgh1KPG_1Xj-113" edge="1">
          <mxGeometry relative="1" as="geometry" />
        </mxCell>
        <mxCell id="LmKcbsiHDKgh1KPG_1Xj-72" value="Say &quot; Here is your new &quot;(password) &quot;!&quot;&amp;nbsp;" style="whiteSpace=wrap;html=1;" parent="WIyWlLk6GJQsqaUBKTNV-1" vertex="1">
          <mxGeometry x="431" y="206.25" width="120" height="60" as="geometry" />
        </mxCell>
        <mxCell id="LmKcbsiHDKgh1KPG_1Xj-111" value="" style="edgeStyle=orthogonalEdgeStyle;rounded=0;orthogonalLoop=1;jettySize=auto;html=1;" parent="WIyWlLk6GJQsqaUBKTNV-1" source="LmKcbsiHDKgh1KPG_1Xj-103" target="LmKcbsiHDKgh1KPG_1Xj-110" edge="1">
          <mxGeometry relative="1" as="geometry" />
        </mxCell>
        <mxCell id="LmKcbsiHDKgh1KPG_1Xj-103" value="Ask &quot;How many passwords would you like to generate?&quot;" style="whiteSpace=wrap;html=1;" parent="WIyWlLk6GJQsqaUBKTNV-1" vertex="1">
          <mxGeometry x="90" y="-120" width="94" height="60" as="geometry" />
        </mxCell>
        <mxCell id="LmKcbsiHDKgh1KPG_1Xj-138" value="" style="edgeStyle=orthogonalEdgeStyle;rounded=0;orthogonalLoop=1;jettySize=auto;html=1;" parent="WIyWlLk6GJQsqaUBKTNV-1" source="LmKcbsiHDKgh1KPG_1Xj-110" target="LmKcbsiHDKgh1KPG_1Xj-137" edge="1">
          <mxGeometry relative="1" as="geometry" />
        </mxCell>
        <mxCell id="LmKcbsiHDKgh1KPG_1Xj-110" value="set answer to (n)" style="rounded=0;whiteSpace=wrap;html=1;" parent="WIyWlLk6GJQsqaUBKTNV-1" vertex="1">
          <mxGeometry x="200" y="-120" width="64" height="60" as="geometry" />
        </mxCell>
        <mxCell id="LmKcbsiHDKgh1KPG_1Xj-123" style="edgeStyle=orthogonalEdgeStyle;rounded=0;orthogonalLoop=1;jettySize=auto;html=1;exitX=0.5;exitY=1;exitDx=0;exitDy=0;entryX=0.5;entryY=0;entryDx=0;entryDy=0;" parent="WIyWlLk6GJQsqaUBKTNV-1" source="LmKcbsiHDKgh1KPG_1Xj-113" target="LmKcbsiHDKgh1KPG_1Xj-122" edge="1">
          <mxGeometry relative="1" as="geometry" />
        </mxCell>
        <mxCell id="LmKcbsiHDKgh1KPG_1Xj-113" value="(x) &amp;lt;-- (x) + 1" style="rounded=0;whiteSpace=wrap;html=1;" parent="WIyWlLk6GJQsqaUBKTNV-1" vertex="1">
          <mxGeometry x="286" y="205" width="120" height="60" as="geometry" />
        </mxCell>
        <mxCell id="LmKcbsiHDKgh1KPG_1Xj-125" value="" style="edgeStyle=orthogonalEdgeStyle;rounded=0;orthogonalLoop=1;jettySize=auto;html=1;" parent="WIyWlLk6GJQsqaUBKTNV-1" source="LmKcbsiHDKgh1KPG_1Xj-122" edge="1">
          <mxGeometry relative="1" as="geometry">
            <mxPoint x="346" y="389.25" as="targetPoint" />
            <Array as="points">
              <mxPoint x="346" y="349.25" />
              <mxPoint x="346" y="349.25" />
            </Array>
          </mxGeometry>
        </mxCell>
        <mxCell id="LmKcbsiHDKgh1KPG_1Xj-126" value="Yes" style="edgeLabel;html=1;align=center;verticalAlign=middle;resizable=0;points=[];" parent="LmKcbsiHDKgh1KPG_1Xj-125" vertex="1" connectable="0">
          <mxGeometry x="-0.4356" y="1" relative="1" as="geometry">
            <mxPoint y="-1" as="offset" />
          </mxGeometry>
        </mxCell>
        <mxCell id="LmKcbsiHDKgh1KPG_1Xj-134" style="edgeStyle=orthogonalEdgeStyle;rounded=0;orthogonalLoop=1;jettySize=auto;html=1;exitX=0;exitY=0.5;exitDx=0;exitDy=0;entryX=0.5;entryY=1;entryDx=0;entryDy=0;" parent="WIyWlLk6GJQsqaUBKTNV-1" source="LmKcbsiHDKgh1KPG_1Xj-122" target="LmKcbsiHDKgh1KPG_1Xj-3" edge="1">
          <mxGeometry relative="1" as="geometry" />
        </mxCell>
        <mxCell id="LmKcbsiHDKgh1KPG_1Xj-122" value="Is (x) &amp;gt; (n)?" style="rhombus;whiteSpace=wrap;html=1;" parent="WIyWlLk6GJQsqaUBKTNV-1" vertex="1">
          <mxGeometry x="276" y="300" width="140" height="60" as="geometry" />
        </mxCell>
        <mxCell id="LmKcbsiHDKgh1KPG_1Xj-127" value="End" style="ellipse;whiteSpace=wrap;html=1;" parent="WIyWlLk6GJQsqaUBKTNV-1" vertex="1">
          <mxGeometry x="291" y="389.25" width="110" height="50" as="geometry" />
        </mxCell>
        <mxCell id="LmKcbsiHDKgh1KPG_1Xj-139" value="" style="edgeStyle=orthogonalEdgeStyle;rounded=0;orthogonalLoop=1;jettySize=auto;html=1;" parent="WIyWlLk6GJQsqaUBKTNV-1" source="LmKcbsiHDKgh1KPG_1Xj-137" target="LmKcbsiHDKgh1KPG_1Xj-3" edge="1">
          <mxGeometry relative="1" as="geometry" />
        </mxCell>
        <mxCell id="LmKcbsiHDKgh1KPG_1Xj-137" value="Set (x) = 1" style="whiteSpace=wrap;html=1;rounded=0;" parent="WIyWlLk6GJQsqaUBKTNV-1" vertex="1">
          <mxGeometry x="286" y="-120" width="60" height="60" as="geometry" />
        </mxCell>
      </root>
    </mxGraphModel>
  </diagram>
</mxfile>
